<?xml version="1.0" standalone="no"?>
<!DOCTYPE svg PUBLIC "-//W3C//DTD SVG 20010904//EN"
 "http://www.w3.org/TR/2001/REC-SVG-20010904/DTD/svg10.dtd">
<svg version="1.0" xmlns="http://www.w3.org/2000/svg"
 width="192.000000pt" height="192.000000pt" viewBox="0 0 192.000000 192.000000"
 preserveAspectRatio="xMidYMid meet">
<metadata>
Created by potrace 1.11, written by Peter Selinger 2001-2013
</metadata>
<g transform="translate(0.000000,192.000000) scale(0.100000,-0.100000)"
fill="#000000" stroke="none">
<path d="M70 1745 c0 -58 0 -431 0 -830 0 -399 0 -751 0 -784 0 -47 4 -60 18
-65 9 -3 24 -9 32 -12 13 -5 13 -4 0 5 -11 7 -7 10 18 9 20 -1 29 -5 25 -12
-4 -6 1 -5 10 3 9 7 17 9 17 4 0 -5 7 -10 15 -10 8 0 12 4 9 9 -10 16 29 8 42
-9 13 -17 14 -17 7 2 -6 18 -5 19 12 5 11 -9 16 -10 11 -2 -4 7 -1 12 9 12 9
0 14 -3 12 -7 -3 -5 11 -9 30 -9 22 -1 30 2 22 7 -8 5 -2 7 19 7 20 -1 29 -5
25 -12 -4 -6 1 -5 10 3 9 7 17 9 17 4 0 -5 7 -10 15 -10 8 0 12 4 9 9 -10 16
29 8 42 -9 13 -17 14 -17 7 2 -6 18 -5 19 12 5 11 -9 16 -10 11 -2 -4 7 -1 12
9 12 9 0 14 -3 12 -7 -3 -5 11 -9 30 -9 22 -1 30 2 22 7 -8 5 -2 7 19 7 20 -1
29 -5 25 -12 -4 -6 1 -5 10 3 9 7 17 9 17 4 0 -5 7 -10 15 -10 8 0 12 4 9 9
-10 16 29 8 42 -9 13 -17 14 -17 7 2 -6 18 -5 19 12 5 11 -9 16 -10 11 -2 -4
7 -1 12 9 12 9 0 14 -3 12 -7 -3 -5 11 -9 30 -9 22 -1 30 2 22 7 -8 5 -2 7 19
7 20 -1 29 -5 25 -12 -4 -6 1 -5 10 3 9 7 17 9 17 4 0 -5 7 -10 15 -10 8 0 12
4 9 9 -10 16 29 8 42 -10 13 -16 14 -16 7 3 -6 18 -5 19 12 5 11 -9 16 -10 11
-2 -4 7 -1 12 9 12 9 0 14 -3 12 -7 -3 -5 11 -9 30 -9 22 -1 30 2 22 7 -8 5
-2 7 19 7 20 -1 29 -5 25 -12 -4 -6 1 -5 10 3 9 7 17 9 17 4 0 -5 7 -10 15
-10 8 0 12 4 9 9 -10 16 29 8 42 -9 13 -17 14 -17 7 2 -6 18 -5 19 12 5 11 -9
16 -10 11 -2 -4 7 -1 12 9 12 10 0 14 -5 9 -12 -5 -10 -4 -10 6 -1 11 10 16 9
27 -5 12 -16 12 -15 6 3 -6 18 -5 19 12 5 11 -9 16 -10 11 -2 -4 7 -1 12 9 12
9 0 14 -3 12 -8 -3 -4 11 -8 30 -8 22 -1 30 2 22 7 -8 5 -2 7 19 7 20 -1 29
-5 25 -12 -4 -6 1 -5 10 3 9 7 17 9 17 4 0 -5 7 -10 15 -10 8 0 12 4 9 9 -10
16 29 8 42 -9 13 -17 14 -17 7 2 -6 18 -5 19 12 5 11 -9 16 -10 11 -2 -4 7 -1
12 9 12 9 0 14 -3 12 -7 -3 -5 11 -9 30 -9 22 -1 30 2 22 7 -8 5 -2 7 19 7 20
-1 29 -5 25 -12 -4 -6 1 -5 10 3 9 7 17 9 17 4 0 -5 7 -10 15 -10 8 0 12 4 8
10 -3 5 5 7 18 5 13 -2 23 -9 21 -16 -1 -8 2 -11 8 -7 6 3 7 12 3 18 -4 7 2 5
12 -3 15 -12 17 -12 10 -1 -6 11 -3 13 13 9 12 -4 24 -3 27 2 3 4 5 203 4 441
0 239 0 443 0 454 0 11 0 157 0 325 0 168 0 312 0 320 0 8 0 56 0 105 -1 50
-1 100 0 113 l1 22 -890 0 -890 0 0 -105z"/>
</g>
</svg>
